<svg width="107" height="32" viewBox="0 0 107 32" fill="none" xmlns="http://www.w3.org/2000/svg">
<path d="M30.1007 25.2746C30.822 25.3303 31.4602 24.7901 31.4295 24.0681C31.3697 22.6651 31.0395 21.2825 30.4525 19.9975C29.6836 18.3144 28.4994 16.8539 27.011 15.7529C25.5225 14.6519 23.7785 13.9464 21.9424 13.7026C20.1064 13.4588 18.2384 13.6847 16.5136 14.3591C14.7889 15.0335 13.2638 16.1343 12.0814 17.5583C10.8991 18.9824 10.0981 20.6829 9.75363 22.5007C9.40916 24.3184 9.53247 26.1937 10.112 27.9508C10.5545 29.2923 11.2518 30.5314 12.1616 31.602C12.6297 32.1529 13.4656 32.1169 13.9573 31.5868L16.0043 29.3801C16.496 28.85 16.4472 28.0279 16.0528 27.4222C15.8042 27.0404 15.6049 26.6268 15.4611 26.1908C15.18 25.3384 15.1201 24.4286 15.2873 23.5468C15.4544 22.665 15.8429 21.84 16.4165 21.1492C16.9901 20.4584 17.73 19.9243 18.5667 19.5972C19.4034 19.27 20.3096 19.1604 21.2003 19.2787C22.091 19.3969 22.9371 19.7392 23.6592 20.2733C24.3813 20.8074 24.9557 21.5159 25.3287 22.3324C25.5195 22.7501 25.6544 23.1889 25.7313 23.6378C25.8535 24.35 26.3764 24.9867 27.0977 25.0424L30.1007 25.2746Z" fill="#79CE0A"/>
<path d="M8.64582 22.1119C7.92534 25.3829 6.94499 25.9063 4.8469 25.9063C2.74881 25.9063 1.04798 24.7942 1.04798 22.1119C1.04798 18.9718 3.27493 18.3176 4.8469 18.3176C7.85984 18.3176 8.64582 20.0164 8.64582 22.1119Z" fill="#1C7906"/>
<path d="M10.6108 11.4485C10.6108 14.3751 8.31833 17.2709 5.30539 16.7475C2.29245 16.2241 0 14.3751 0 11.4485C0.589488 6.93451 2.3753 6.14947 5.30539 6.14947C8.90782 6.14947 10.6108 8.52192 10.6108 11.4485Z" fill="#F1B401"/>
<path d="M24.7585 5.75695C24.7585 8.93643 23.7105 11.5139 18.9946 11.5139C14.2787 11.5139 13.2307 8.93643 13.2307 5.75695C13.2307 1.89718 15.8113 0 18.9946 0C22.1779 0 24.7585 1.89718 24.7585 5.75695Z" fill="#FA551A"/>
<path d="M34.7482 12.4266C33.7733 14.7216 32.0352 16.1803 28.8226 14.8188C25.61 13.4573 25.4525 11.1952 26.4275 8.90027C27.4024 6.60532 29.6054 5.34355 32.3532 6.50807C35.101 7.67259 35.7232 10.1317 34.7482 12.4266Z" fill="#79CE0A"/>
<path d="M46.2241 27.6005C43.654 27.6005 41.6433 27.0155 40.1922 25.8455C39.0253 24.8906 38.3219 23.6535 38.082 22.134C37.9819 21.4999 38.5131 20.9734 39.1558 20.9734H41.1766C41.8088 20.9734 42.2927 21.4921 42.4702 22.0982C42.6455 22.6968 42.9702 23.1426 43.4442 23.4356C44.1785 23.8897 45.1663 24.1167 46.4077 24.1167C47.3867 24.1167 48.1648 23.9246 48.7417 23.5404C49.3362 23.1562 49.6334 22.6324 49.6334 21.9688C49.6334 21.5846 49.5285 21.2615 49.3187 20.9996C49.1089 20.7376 48.6893 20.4932 48.0599 20.2662C47.4479 20.0391 46.5475 19.8209 45.3586 19.6113C42.9109 19.2271 41.1363 18.5635 40.0348 17.6205C38.9333 16.6601 38.3826 15.3329 38.3826 13.639C38.3826 12.5738 38.6798 11.6221 39.2743 10.7839C39.8687 9.94566 40.7254 9.29081 41.8444 8.81931C42.9634 8.34782 44.2834 8.11207 45.8045 8.11207C48.2697 8.11207 50.1754 8.67088 51.5217 9.7885C52.5918 10.663 53.2642 11.8355 53.5389 13.3058C53.6597 13.9521 53.1232 14.5034 52.465 14.5034H50.521C49.9058 14.5034 49.4289 14.0093 49.2284 13.4284C49.0667 12.9598 48.8083 12.5848 48.4533 12.3031C47.8763 11.8316 46.9934 11.5959 45.8045 11.5959C44.9303 11.5959 44.2309 11.7705 43.7064 12.1198C43.1819 12.4516 42.9196 12.8969 42.9196 13.4557C42.9196 13.8573 43.0245 14.1978 43.2344 14.4772C43.4442 14.7567 43.8375 15.0099 44.4145 15.2369C44.9915 15.4639 45.8219 15.6647 46.9059 15.8393C48.7592 16.1362 50.2191 16.5466 51.2856 17.0705C52.3521 17.5769 53.1039 18.2055 53.541 18.9564C53.9956 19.7073 54.2229 20.6241 54.2229 21.7068C54.2229 23.6103 53.4798 25.0684 51.9937 26.0813C50.5251 27.0941 48.6019 27.6005 46.2241 27.6005Z" fill="#1C7906"/>
<path d="M56.1665 9.58171C56.1665 8.94365 56.6843 8.4264 57.3232 8.4264H59.1272C59.766 8.4264 60.2839 8.94365 60.2839 9.58171V13.0218C60.2839 13.8026 61.3943 14.2501 62.0935 13.901C62.7928 13.5343 63.5796 13.3509 64.4538 13.3509C65.9574 13.3509 67.1375 13.8311 67.9942 14.7916C68.8684 15.7346 69.3055 17.1316 69.3055 18.9826V26.1309C69.3055 26.7689 68.7877 27.2862 68.1488 27.2862H66.3448C65.706 27.2862 65.1881 26.7689 65.1881 26.1309V19.4803C65.1881 17.7515 64.4363 16.8871 62.9327 16.8871C62.1809 16.8871 61.5515 17.1491 61.0444 17.6729C60.5374 18.1794 60.2839 18.9215 60.2839 19.8994V26.1309C60.2839 26.7689 59.766 27.2862 59.1272 27.2862H57.3232C56.6843 27.2862 56.1665 26.7689 56.1665 26.1309V9.58171Z" fill="#1C7906"/>
<path d="M71.9197 14.8205C71.9197 14.1825 72.4376 13.6652 73.0764 13.6652H74.8804C75.5193 13.6652 76.0371 14.1825 76.0371 14.8205V26.1309C76.0371 26.7689 75.5193 27.2862 74.8804 27.2862H73.0764C72.4376 27.2862 71.9197 26.7689 71.9197 26.1309V14.8205ZM71.9197 9.58171C71.9197 8.94365 72.4376 8.4264 73.0764 8.4264H74.8804C75.5193 8.4264 76.0371 8.94365 76.0371 9.58171V10.6501C76.0371 11.2882 75.5193 11.8054 74.8804 11.8054H73.0764C72.4376 11.8054 71.9197 11.2882 71.9197 10.6501V9.58171Z" fill="#1C7906"/>
<path d="M87.7063 19.4803C87.7063 17.7515 86.9545 16.8871 85.4509 16.8871C84.6991 16.8871 84.0697 17.1491 83.5627 17.6729C83.0556 18.1794 82.8021 18.9215 82.8021 19.8994V26.1309C82.8021 26.7689 82.2842 27.2862 81.6454 27.2862H79.8414C79.2026 27.2862 78.6847 26.7689 78.6847 26.1309V14.8205C78.6847 14.1825 79.2026 13.6652 79.8414 13.6652H82.2335C82.4896 13.6652 82.6972 13.8726 82.6972 14.1284C82.6972 14.5716 83.3037 14.7947 83.648 14.5152C83.9227 14.2922 84.2177 14.0962 84.533 13.9272C85.2498 13.543 86.0628 13.3509 86.972 13.3509C88.4756 13.3509 89.6557 13.8311 90.5125 14.7916C91.3866 15.7346 91.8237 17.1316 91.8237 18.9826V26.1309C91.8237 26.7689 91.3059 27.2862 90.667 27.2862H88.863C88.2242 27.2862 87.7063 26.7689 87.7063 26.1309V19.4803Z" fill="#1C7906"/>
<path d="M103.092 26.8893C103.092 26.5244 102.621 26.3363 102.332 26.5595C101.979 26.8323 101.603 27.0483 101.204 27.2076C100.522 27.4695 99.718 27.6005 98.7914 27.6005C97.2878 27.6005 96.0726 27.2338 95.146 26.5004C94.2368 25.7669 93.7823 24.7366 93.7823 23.4095C93.7823 22.2045 94.2019 21.2877 95.0411 20.6591C95.8978 20.0129 97.3053 19.524 99.2634 19.1922L102.444 18.6552C102.758 18.6023 102.987 18.3311 102.987 18.0135C102.987 17.4896 102.83 17.0879 102.515 16.8085C102.201 16.5117 101.659 16.3632 100.889 16.3632C100.19 16.3632 99.6306 16.5204 99.211 16.8347C99.113 16.9113 99.0264 16.9946 98.9513 17.0847C98.5516 17.5638 98.0859 18.1182 97.4616 18.1182H95.6603C95.0163 18.1182 94.4768 17.5853 94.6286 16.9602C94.8678 15.9756 95.4161 15.1829 96.2737 14.582C97.4451 13.7613 98.9662 13.3509 100.837 13.3509C102.865 13.3509 104.395 13.7176 105.426 14.4511C106.475 15.1845 107 16.2061 107 17.5158V26.1309C107 26.7689 106.482 27.2862 105.843 27.2862H103.49C103.27 27.2862 103.092 27.1085 103.092 26.8893ZM97.9784 23.2523C97.9784 23.7238 98.1445 24.0992 98.4767 24.3786C98.8263 24.6406 99.3246 24.7715 99.9715 24.7715C100.828 24.7715 101.545 24.5533 102.122 24.1167C102.699 23.6627 102.987 22.9903 102.987 22.0997C102.987 21.5713 102.503 21.1749 101.985 21.2785L100.103 21.6544C99.3508 21.7941 98.8088 21.9775 98.4767 22.2045C98.1445 22.4315 97.9784 22.7808 97.9784 23.2523Z" fill="#1C7906"/>
</svg>
